<svg width="97" height="33" viewBox="0 0 97 33" fill="none" xmlns="http://www.w3.org/2000/svg">
<path fill-rule="evenodd" clip-rule="evenodd" d="M72.6077 31.0639C85.6224 31.0639 92.7409 20.5877 92.7409 11.5027C92.7409 11.2052 92.7409 10.909 92.7202 10.6141C94.1051 9.64086 95.3005 8.43584 96.2505 7.05543C94.9591 7.61142 93.5891 7.97603 92.1863 8.1371C93.6635 7.27791 94.769 5.92655 95.2972 4.33451C93.9082 5.13531 92.3886 5.69968 90.804 6.00325C88.6107 3.73724 85.1254 3.18262 82.3026 4.6504C79.4798 6.11819 78.0215 9.24333 78.7454 12.2734C73.056 11.9963 67.7551 9.38541 64.1621 5.09047C62.284 8.23179 63.2433 12.2505 66.3529 14.2679C65.2268 14.2355 64.1253 13.9403 63.1413 13.4074C63.1413 13.4355 63.1413 13.465 63.1413 13.4945C63.1422 16.7671 65.5165 19.5858 68.8181 20.2338C67.7764 20.5099 66.6834 20.5502 65.6231 20.3518C66.5501 23.1524 69.2066 25.0709 72.2339 25.1261C69.7283 27.0394 66.633 28.078 63.4462 28.0749C62.8832 28.0739 62.3207 28.0408 61.7617 27.9757C64.9976 29.9933 68.7628 31.0635 72.6077 31.0586" fill="white"/>
<path fill-rule="evenodd" clip-rule="evenodd" d="M16.3817 0.205566C11.9449 0.205566 11.3886 0.224373 9.64607 0.303877C7.90721 0.383188 6.71963 0.65938 5.68049 1.06326C4.6062 1.48069 3.69514 2.0393 2.78687 2.94751C1.87866 3.85579 1.32005 4.76685 0.902614 5.84114C0.498735 6.88028 0.222543 8.06786 0.143233 9.80672C0.0637281 11.5492 0.0449219 12.1055 0.0449219 16.5424C0.0449219 20.9792 0.0637281 21.5355 0.143233 23.278C0.222543 25.0169 0.498735 26.2044 0.902614 27.2436C1.32005 28.3179 1.87866 29.2289 2.78687 30.1372C3.69514 31.0454 4.6062 31.604 5.68049 32.0215C6.71963 32.4253 7.90721 32.7015 9.64607 32.7808C11.3886 32.8603 11.9449 32.8791 16.3817 32.8791C20.8185 32.8791 21.3749 32.8603 23.1173 32.7808C24.8562 32.7015 26.0438 32.4253 27.0829 32.0215C28.1572 31.604 29.0683 31.0454 29.9766 30.1372C30.8848 29.2289 31.4434 28.3179 31.8609 27.2436C32.2647 26.2044 32.5409 25.0169 32.6202 23.278C32.6997 21.5355 32.7185 20.9792 32.7185 16.5424C32.7185 12.1055 32.6997 11.5492 32.6202 9.80672C32.5409 8.06786 32.2647 6.88028 31.8609 5.84114C31.4434 4.76685 30.8848 3.85579 29.9766 2.94751C29.0683 2.0393 28.1572 1.48069 27.0829 1.06326C26.0438 0.65938 24.8562 0.383188 23.1173 0.303877C21.3749 0.224373 20.8185 0.205566 16.3817 0.205566ZM16.3817 3.14903C20.7438 3.14903 21.2605 3.16569 22.9831 3.24429C24.5759 3.31692 25.441 3.58306 26.0166 3.80679C26.7792 4.10315 27.3234 4.45716 27.8951 5.02887C28.4668 5.60051 28.8208 6.14472 29.1171 6.90728C29.3409 7.48295 29.607 8.34797 29.6796 9.94079C29.7582 11.6634 29.7749 12.1802 29.7749 16.5423C29.7749 20.9044 29.7582 21.4211 29.6796 23.1437C29.607 24.7365 29.3409 25.6016 29.1171 26.1772C28.8208 26.9398 28.4668 27.484 27.8951 28.0556C27.3234 28.6273 26.7792 28.9814 26.0166 29.2777C25.441 29.5014 24.5759 29.7676 22.9831 29.8402C21.2607 29.9188 20.7441 29.9355 16.3817 29.9355C12.0192 29.9355 11.5027 29.9188 9.7802 29.8402C8.18738 29.7676 7.32236 29.5014 6.74669 29.2777C5.98413 28.9814 5.43992 28.6273 4.86828 28.0556C4.29663 27.484 3.94256 26.9398 3.6462 26.1772C3.42247 25.6016 3.15633 24.7365 3.0837 23.1437C3.0051 21.4211 2.98843 20.9044 2.98843 16.5423C2.98843 12.1802 3.0051 11.6634 3.0837 9.94079C3.15633 8.34797 3.42247 7.48295 3.6462 6.90728C3.94256 6.14472 4.29657 5.60051 4.86828 5.02887C5.43992 4.45716 5.98413 4.10315 6.74669 3.80679C7.32236 3.58306 8.18738 3.31692 9.7802 3.24429C11.5028 3.16569 12.0196 3.14903 16.3817 3.14903ZM16.4581 22.0745C13.4392 22.0745 10.992 19.6273 10.992 16.6084C10.992 13.5895 13.4392 11.1423 16.4581 11.1423C19.477 11.1423 21.9242 13.5895 21.9242 16.6084C21.9242 19.6273 19.477 22.0745 16.4581 22.0745ZM16.4582 8.1877C11.8075 8.1877 8.0374 11.9578 8.0374 16.6085C8.0374 21.2591 11.8075 25.0292 16.4582 25.0292C21.1088 25.0292 24.8789 21.2591 24.8789 16.6085C24.8789 11.9578 21.1088 8.1877 16.4582 8.1877ZM24.9504 9.75767C26.0145 9.75767 26.8772 8.89507 26.8772 7.83092C26.8772 6.76678 26.0145 5.90411 24.9504 5.90411C23.8863 5.90411 23.0237 6.76678 23.0237 7.83092C23.0237 8.89507 23.8863 9.75767 24.9504 9.75767Z" fill="white"/>
</svg>
